<svg xmlns="http://www.w3.org/2000/svg" viewBox="0 0 90 90">
	<path fill-rule="evenodd" clip-rule="evenodd" fill="#e53033" d="M0 0h90v90H0V0z"/>
	<path fill="#f0f0f0" fill-rule="evenodd" clip-rule="evenodd" d="M59.8 55.8v-.1c0-.3.1-.6.3-.9.2-.2.3-.4.5-.5.2-.1.3-.2.4-.2l2.3-1c.1 0 .2-.1.2-.2v-.1l-.4-.8c0-.1-.1-.1-.2-.1s-.1 0-.2.1l-2 .9c-.4.2-.8.5-1.1.8-.3.3-.5.7-.6 1-.1.3-.2.6-.2 1s0 .7-.1 1.1c0 .4 0 .7.1 1.1 0 .4.1.8.3 1.1.2.4.4.7.7.8.3.2.5.3.8.4.2.1.5.1.6.1.4 0 .8-.1 1.2-.3.4-.2.6-.5.9-.9.2-.4.3-.9.3-1.6 0-.9-.2-1.5-.6-2-.4-.5-.9-.7-1.5-.7-.4 0-.7.1-1 .2-.3.2-.5.5-.7.8zm1.4 3.5c-.3 0-.5-.1-.6-.3-.1-.2-.2-.4-.2-.7v-.7-.7c0-.3.1-.5.2-.6.1-.3.4-.3.6-.3.3 0 .5.1.6.3.1.2.2.4.2.6v1.4c0 .3-.1.5-.2.7-.1.2-.3.3-.6.3zM47.7 60.1h.1l.1-.1.1-3.5c.1.2.1.4.2.6.1.2.1.4.2.6l.6 1.6c0 .1.1.1.1.1H49.9s.1 0 .1-.1l.6-1.6c.1-.2.1-.4.2-.6.1-.2.1-.4.2-.6l.1 3.5c0 .1 0 .1.1.1h1V60l-.3-5c0-.1 0-.1-.1-.2h-1-.1s-.1 0-.1.1l-.8 2.3c-.1.2-.1.4-.2.6-.1.2-.1.4-.1.6 0-.1-.1-.3-.1-.5-.1-.2-.1-.4-.2-.6l-.8-2.3c0-.1-.1-.1-.1-.1h-1-.1s-.1.1-.1.2l-.3 5v.1h.2l.7-.1zM57.6 57.8h.2s.1-.1.1-.3V57c0-.2 0-.4-.1-.6-.1-.3-.2-.6-.3-.8-.1-.3-.4-.5-.6-.7-.3-.2-.6-.3-1.1-.3-.8 0-1.4.3-1.8.9-.4.6-.6 1.3-.6 2.1 0 .2 0 .4.1.7 0 .3.1.6.3.9.2.3.4.6.7.8.3.2.8.3 1.4.3.3 0 .6 0 .9-.1.3-.1.6-.2.8-.3l.1-.1s0-.1.1-.1v-.1l-.3-.6v-.1h-.1-.1s-.1 0-.2.1-.2.1-.4.2-.4.1-.7.1c-.4 0-.8-.1-.9-.4-.2-.2-.3-.6-.3-1l2.8-.1zm-2.9-1c0-.4.1-.7.3-.9.1-.2.4-.3.7-.3.2 0 .4.1.5.2.1.1.2.3.2.5V56.9l-1.7-.1zM68.7 57.9h.2s.1-.1.1-.3v-.5c0-.2 0-.4-.1-.6-.1-.3-.2-.6-.3-.8-.1-.3-.4-.5-.6-.7-.3-.2-.6-.3-1.1-.3-.8 0-1.4.3-1.8.9-.4.6-.6 1.3-.6 2.1 0 .2 0 .4.1.7 0 .3.1.6.3.9.2.3.4.6.7.8.3.2.8.3 1.4.3.3 0 .6 0 .9-.1.3-.1.6-.2.8-.3l.1-.1.1-.1v-.1l-.4-.7v-.1h-.1-.1s-.1 0-.2.1-.2.1-.4.2-.4.1-.7.1c-.4 0-.8-.1-.9-.4-.2-.2-.3-.6-.3-1h2.9zm-2.9-1c0-.4.1-.7.3-.9.1-.2.4-.3.7-.3.2 0 .4.1.5.2.1.1.2.3.2.5V57l-1.7-.1zM73 55.9V60.1H74.3V54.9v-.1h-3.5v1.5c0 .4 0 .7-.1 1.1 0 .4 0 .7-.1.9-.1.3-.1.5-.3.6-.1.1-.3.2-.5.2h-.2-.1v.1l.2.8s0 .1.1.1c0 0 .1 0 .2.1.1 0 .2 0 .5-.1.2 0 .4-.1.7-.3.2-.2.4-.4.6-.8.1-.3.2-.6.2-1.1V57v-1l1-.1zM77.7 60.2c.3 0 .6 0 .9-.1.3 0 .6-.2.9-.4.2-.2.4-.4.5-.7.1-.2.1-.5.1-.7 0-.2 0-.5-.1-.7-.1-.2-.2-.4-.4-.6-.2-.2-.5-.3-.8-.4-.3 0-.6-.1-.9-.1h-.6v-1.9c0-.1 0-.1-.1-.1h-.1l-.8.2c-.2 0-.3.1-.3.1V60h.1l1.6.2zm-.4-2.4h1c.1 0 .2.1.3.2.1.1.2.2.2.5s-.1.5-.3.6c-.2.1-.4.1-.6.1h-.5l-.1-1.4z"/>
	<g>
		<path fill="#f0f0f0" fill-rule="evenodd" clip-rule="evenodd" d="M18.4 50.1l1.3 3.7h-5.5c2 5.2 13.6 3.6 19.9 3.7-7.1-.9-8.5-6-9.2-7.4h-6.5zM31.4 32.4h.5c.4 0 .4.1.4.5 0 .3 0 .4.1.5h.6v-.1c-.1 0-.1-.1-.1-.5 0-.5-.1-.5-.3-.6.2-.1.4-.3.4-.6 0-.2-.1-.7-.8-.7h-1.3v2.5h.5v-1zm0-1.1h.6c.3 0 .4.2.4.3 0 .2-.1.3-.4.3h-.6v-.6z"/>
		<path fill="#f0f0f0" fill-rule="evenodd" clip-rule="evenodd" d="M29.7 32.1c0-.6.2-1.1.6-1.5.4-.4.9-.6 1.5-.6s1.1.2 1.5.6c.4.4.6.9.6 1.5 0 1.1-.9 2.1-2.1 2.1-1.2 0-2.1-1-2.1-2.1zm.2-1.8c-.5.5-.8 1.1-.8 1.8 0 1.4 1.2 2.6 2.6 2.6 1.4 0 2.6-1.2 2.6-2.6 0-.7-.3-1.4-.8-1.8-.5-.5-1.1-.8-1.8-.8-.6 0-1.3.3-1.8.8zM32.7 48.5l-16.5-.1 1.2 3.7h-4L11 44.7h3.8l3.6-11.2H16l-1.2-3.7h10.1l4.7 14.9h1.9l1.2 3.8zm-13.9-3.7h6.8l-3.3-10.7-3.5 10.7z"/>
		<path fill="#f0f0f0" fill-rule="evenodd" clip-rule="evenodd" d="M60.3 35.4c1.5-3.1 4.7-5.2 8.4-5.2 5.1 0 9.3 4.2 9.2 9.3 0 5.1-4.2 9.3-9.3 9.2-4.5 0-8.2-3.2-9.1-7.5-1.3 2.1-3.6 3.5-6.3 3.6H51.8v3.8h-3.7v-3.8h-1.5c-.8 0-1.5-.1-2.2-.4.2.7.3 1.5.3 2.3 0 5.1-4.2 9.3-9.3 9.2-3.9 0-7.2-2.4-8.6-5.8h4.3c1 1.3 2.6 2.1 4.3 2.1 2.5 0 4.5-1.6 5.3-3.8h-6.2l-1.2-3.7h7.3c-.8-2.1-2.8-3.7-5.2-3.7-1.8 0-3.4.8-4.4 2.1l-1.2-4c1.6-1.2 3.5-1.9 5.6-1.9 1.4 0 2.8.3 4 .9 0-.3-.1-.6-.1-1 0-1.4.4-2.6 1-3.7h-2.2l-1.2-3.7H53.9c3.1.7 5.6 2.8 6.4 5.7zm2.7 4.1c0 3.1 2.5 5.6 5.5 5.6 3.1 0 5.6-2.5 5.6-5.5 0-3.1-2.5-5.6-5.5-5.6-3-.1-5.5 2.4-5.6 5.5zm-11.1-5.8v7.4h1.3c2.1 0 3.7-1.6 3.7-3.7s-1.6-3.7-3.7-3.7h-1.3zm-3.7 7.4v-7.4h-1.4c-2.1 0-3.7 1.6-3.7 3.7s1.6 3.7 3.7 3.7h1.4z"/>
	</g>
</svg>
